# MagicaVoxel @ Ephtracy

# material
mtllib classroom.mtl
usemtl palette

# normals
vn -1 0 0
vn 1 0 0
vn 0 0 1
vn 0 0 -1
vn 0 -1 0
vn 0 1 0

# texcoords
vt 0.306641 0.5
vt 0.958984 0.5

# verts
v -63 0 63
v -63 0 -63
v -63 1 63
v -63 1 62
v -63 1 -63
v -63 34 -39
v -63 34 -40
v -63 35 63
v -63 35 62
v -63 35 -39
v -63 35 -40
v -49 6 62
v -49 6 61
v -49 32 62
v -49 32 61
v -48 1 62
v -48 1 -63
v -48 6 62
v -48 6 61
v -48 6 28
v -48 6 7
v -48 6 6
v -48 6 -18
v -48 6 -19
v -48 6 -39
v -48 6 -40
v -48 6 -63
v -48 32 62
v -48 32 61
v -48 32 28
v -48 32 7
v -48 32 6
v -48 32 -18
v -48 32 -19
v -48 32 -39
v -48 32 -40
v -48 32 -63
v -48 34 -39
v -48 34 -40
v -48 35 62
v -48 35 29
v -48 35 28
v -48 35 25
v -48 35 24
v -48 35 7
v -48 35 6
v -48 35 -18
v -48 35 -19
v -48 35 -39
v -48 35 -40
v -48 35 -63
v -48 126 29
v -48 126 28
v -48 126 25
v -48 126 24
v -48 126 7
v -48 126 6
v -48 126 -18
v -48 126 -19
v 62 1 62
v 62 1 -39
v 62 1 -40
v 62 1 -63
v 62 35 62
v 62 35 -39
v 62 35 -40
v 62 35 -63
v -47 1 62
v -47 1 -39
v -47 1 -40
v -47 1 -63
v -47 6 28
v -47 6 7
v -47 6 6
v -47 6 -18
v -47 6 -19
v -47 6 -39
v -47 6 -40
v -47 6 -63
v -47 32 28
v -47 32 7
v -47 32 6
v -47 32 -18
v -47 32 -19
v -47 32 -39
v -47 32 -40
v -47 32 -63
v -47 35 62
v -47 35 29
v -47 35 28
v -47 35 25
v -47 35 24
v -47 35 7
v -47 35 6
v -47 35 -18
v -47 35 -19
v -47 35 -39
v -47 35 -40
v -47 35 -63
v -47 126 29
v -47 126 28
v -47 126 25
v -47 126 24
v -47 126 7
v -47 126 6
v -47 126 -18
v -47 126 -19
v 63 0 63
v 63 0 -63
v 63 1 63
v 63 1 -63
v 63 35 63
v 63 35 -63
v -63 0 63
v -63 1 63
v -63 35 63
v 63 0 63
v 63 1 63
v 63 35 63
v -48 35 29
v -48 126 29
v -47 35 29
v -47 126 29
v -48 35 25
v -48 126 25
v -47 35 25
v -47 126 25
v -48 6 7
v -48 32 7
v -48 35 7
v -48 126 7
v -47 6 7
v -47 32 7
v -47 35 7
v -47 126 7
v -48 6 -18
v -48 32 -18
v -48 35 -18
v -48 126 -18
v -47 6 -18
v -47 32 -18
v -47 35 -18
v -47 126 -18
v -63 34 -39
v -63 35 -39
v -48 6 -39
v -48 32 -39
v -48 34 -39
v -48 35 -39
v -47 1 -39
v -47 6 -39
v -47 32 -39
v -47 35 -39
v 62 1 -39
v 62 35 -39
v -63 1 62
v -63 35 62
v -49 6 62
v -49 32 62
v -48 1 62
v -48 6 62
v -48 32 62
v -48 35 62
v -47 1 62
v -47 35 62
v 62 1 62
v 62 35 62
v -49 6 61
v -49 32 61
v -48 6 61
v -48 32 61
v -48 6 28
v -48 32 28
v -48 35 28
v -48 126 28
v -47 6 28
v -47 32 28
v -47 35 28
v -47 126 28
v -48 35 24
v -48 126 24
v -47 35 24
v -47 126 24
v -48 6 6
v -48 32 6
v -48 35 6
v -48 126 6
v -47 6 6
v -47 32 6
v -47 35 6
v -47 126 6
v -48 6 -19
v -48 32 -19
v -48 35 -19
v -48 126 -19
v -47 6 -19
v -47 32 -19
v -47 35 -19
v -47 126 -19
v -63 34 -40
v -63 35 -40
v -48 6 -40
v -48 32 -40
v -48 34 -40
v -48 35 -40
v -47 1 -40
v -47 6 -40
v -47 32 -40
v -47 35 -40
v 62 1 -40
v 62 35 -40
v -63 0 -63
v -63 1 -63
v -48 1 -63
v -48 6 -63
v -48 32 -63
v -48 35 -63
v -47 1 -63
v -47 6 -63
v -47 32 -63
v -47 35 -63
v 62 1 -63
v 62 35 -63
v 63 0 -63
v 63 1 -63
v 63 35 -63
v -63 0 63
v 63 0 63
v -63 0 -63
v 63 0 -63
v -49 6 62
v -48 6 62
v -49 6 61
v -48 6 61
v -48 32 28
v -47 32 28
v -48 32 7
v -47 32 7
v -48 32 6
v -47 32 6
v -48 32 -18
v -47 32 -18
v -48 32 -19
v -47 32 -19
v -48 32 -39
v -47 32 -39
v -48 32 -40
v -47 32 -40
v -48 32 -63
v -47 32 -63
v -63 34 -39
v -48 34 -39
v -63 34 -40
v -48 34 -40
v -63 1 62
v -48 1 62
v -47 1 62
v 62 1 62
v -47 1 -39
v 62 1 -39
v -47 1 -40
v 62 1 -40
v -63 1 -63
v -48 1 -63
v -47 1 -63
v 62 1 -63
v -48 6 28
v -47 6 28
v -48 6 7
v -47 6 7
v -48 6 6
v -47 6 6
v -48 6 -18
v -47 6 -18
v -48 6 -19
v -47 6 -19
v -48 6 -39
v -47 6 -39
v -48 6 -40
v -47 6 -40
v -48 6 -63
v -47 6 -63
v -49 32 62
v -48 32 62
v -49 32 61
v -48 32 61
v -63 35 63
v 63 35 63
v -63 35 62
v -48 35 62
v -47 35 62
v 62 35 62
v -48 35 29
v -47 35 29
v -48 35 28
v -47 35 28
v -48 35 25
v -47 35 25
v -48 35 24
v -47 35 24
v -48 35 7
v -47 35 7
v -48 35 6
v -47 35 6
v -48 35 -18
v -47 35 -18
v -48 35 -19
v -47 35 -19
v -63 35 -39
v -48 35 -39
v -47 35 -39
v 62 35 -39
v -63 35 -40
v -48 35 -40
v -47 35 -40
v 62 35 -40
v -48 35 -63
v -47 35 -63
v 62 35 -63
v 63 35 -63
v -48 126 29
v -47 126 29
v -48 126 28
v -47 126 28
v -48 126 25
v -47 126 25
v -48 126 24
v -47 126 24
v -48 126 7
v -47 126 7
v -48 126 6
v -47 126 6
v -48 126 -18
v -47 126 -18
v -48 126 -19
v -47 126 -19

# faces
f 3/1/1 2/1/1 1/1/1
f 4/1/1 2/1/1 3/1/1
f 5/1/1 2/1/1 4/1/1
f 8/2/1 4/2/1 3/2/1
f 9/2/1 4/2/1 8/2/1
f 10/2/1 7/2/1 6/2/1
f 11/2/1 7/2/1 10/2/1
f 14/2/1 13/2/1 12/2/1
f 15/2/1 13/2/1 14/2/1
f 18/2/1 17/2/1 16/2/1
f 19/2/1 17/2/1 18/2/1
f 20/2/1 17/2/1 19/2/1
f 21/2/1 17/2/1 20/2/1
f 22/2/1 17/2/1 21/2/1
f 23/2/1 17/2/1 22/2/1
f 24/2/1 17/2/1 23/2/1
f 25/2/1 17/2/1 24/2/1
f 26/2/1 17/2/1 25/2/1
f 27/2/1 17/2/1 26/2/1
f 29/2/1 20/2/1 19/2/1
f 30/2/1 20/2/1 29/2/1
f 31/2/1 22/2/1 21/2/1
f 32/2/1 22/2/1 31/2/1
f 33/2/1 24/2/1 23/2/1
f 34/2/1 24/2/1 33/2/1
f 35/2/1 26/2/1 25/2/1
f 36/2/1 26/2/1 35/2/1
f 38/2/1 32/2/1 31/2/1
f 38/2/1 37/2/1 36/2/1
f 38/2/1 36/2/1 35/2/1
f 38/2/1 35/2/1 34/2/1
f 38/2/1 34/2/1 33/2/1
f 38/2/1 33/2/1 32/2/1
f 38/2/1 30/2/1 29/2/1
f 38/2/1 31/2/1 30/2/1
f 38/2/1 29/2/1 28/2/1
f 39/2/1 37/2/1 38/2/1
f 40/2/1 38/2/1 28/2/1
f 41/2/1 38/2/1 40/2/1
f 42/2/1 38/2/1 41/2/1
f 43/2/1 38/2/1 42/2/1
f 44/2/1 38/2/1 43/2/1
f 45/2/1 38/2/1 44/2/1
f 46/2/1 38/2/1 45/2/1
f 47/2/1 38/2/1 46/2/1
f 48/2/1 38/2/1 47/2/1
f 49/2/1 38/2/1 48/2/1
f 50/2/1 37/2/1 39/2/1
f 51/2/1 37/2/1 50/2/1
f 52/2/1 42/2/1 41/2/1
f 53/2/1 42/2/1 52/2/1
f 54/2/1 44/2/1 43/2/1
f 55/2/1 44/2/1 54/2/1
f 56/2/1 46/2/1 45/2/1
f 57/2/1 46/2/1 56/2/1
f 58/2/1 48/2/1 47/2/1
f 59/2/1 48/2/1 58/2/1
f 64/2/1 61/2/1 60/2/1
f 65/2/1 61/2/1 64/2/1
f 66/2/1 63/2/1 62/2/1
f 67/2/1 63/2/1 66/2/1
f 68/2/2 69/2/2 72/2/2
f 72/2/2 69/2/2 73/2/2
f 73/2/2 69/2/2 74/2/2
f 74/2/2 69/2/2 75/2/2
f 75/2/2 69/2/2 76/2/2
f 76/2/2 69/2/2 77/2/2
f 70/2/2 71/2/2 78/2/2
f 78/2/2 71/2/2 79/2/2
f 68/2/2 72/2/2 80/2/2
f 73/2/2 74/2/2 81/2/2
f 81/2/2 74/2/2 82/2/2
f 75/2/2 76/2/2 83/2/2
f 83/2/2 76/2/2 84/2/2
f 81/2/2 82/2/2 88/2/2
f 68/2/2 80/2/2 88/2/2
f 84/2/2 85/2/2 88/2/2
f 83/2/2 84/2/2 88/2/2
f 82/2/2 83/2/2 88/2/2
f 80/2/2 81/2/2 88/2/2
f 88/2/2 85/2/2 89/2/2
f 89/2/2 85/2/2 90/2/2
f 90/2/2 85/2/2 91/2/2
f 91/2/2 85/2/2 92/2/2
f 92/2/2 85/2/2 93/2/2
f 93/2/2 85/2/2 94/2/2
f 94/2/2 85/2/2 95/2/2
f 95/2/2 85/2/2 96/2/2
f 96/2/2 85/2/2 97/2/2
f 86/2/2 87/2/2 98/2/2
f 98/2/2 87/2/2 99/2/2
f 89/2/2 90/2/2 100/2/2
f 100/2/2 90/2/2 101/2/2
f 91/2/2 92/2/2 102/2/2
f 102/2/2 92/2/2 103/2/2
f 93/2/2 94/2/2 104/2/2
f 104/2/2 94/2/2 105/2/2
f 95/2/2 96/2/2 106/2/2
f 106/2/2 96/2/2 107/2/2
f 108/1/2 109/1/2 110/1/2
f 110/1/2 109/1/2 111/1/2
f 110/2/2 111/2/2 112/2/2
f 112/2/2 111/2/2 113/2/2
f 117/1/3 115/1/3 114/1/3
f 118/2/3 116/2/3 115/2/3
f 118/1/3 115/1/3 117/1/3
f 119/2/3 116/2/3 118/2/3
f 122/2/3 121/2/3 120/2/3
f 123/2/3 121/2/3 122/2/3
f 126/2/3 125/2/3 124/2/3
f 127/2/3 125/2/3 126/2/3
f 132/2/3 129/2/3 128/2/3
f 133/2/3 129/2/3 132/2/3
f 134/2/3 131/2/3 130/2/3
f 135/2/3 131/2/3 134/2/3
f 140/2/3 137/2/3 136/2/3
f 141/2/3 137/2/3 140/2/3
f 142/2/3 139/2/3 138/2/3
f 143/2/3 139/2/3 142/2/3
f 148/2/3 145/2/3 144/2/3
f 149/2/3 145/2/3 148/2/3
f 151/2/3 147/2/3 146/2/3
f 152/2/3 147/2/3 151/2/3
f 154/2/3 151/2/3 150/2/3
f 154/2/3 153/2/3 152/2/3
f 154/2/3 152/2/3 151/2/3
f 155/2/3 153/2/3 154/2/3
f 156/2/4 157/2/4 158/2/4
f 158/2/4 157/2/4 159/2/4
f 156/2/4 158/2/4 160/2/4
f 160/2/4 158/2/4 161/2/4
f 159/2/4 157/2/4 162/2/4
f 162/2/4 157/2/4 163/2/4
f 164/2/4 165/2/4 166/2/4
f 166/2/4 165/2/4 167/2/4
f 168/2/4 169/2/4 170/2/4
f 170/2/4 169/2/4 171/2/4
f 172/2/4 173/2/4 176/2/4
f 176/2/4 173/2/4 177/2/4
f 174/2/4 175/2/4 178/2/4
f 178/2/4 175/2/4 179/2/4
f 180/2/4 181/2/4 182/2/4
f 182/2/4 181/2/4 183/2/4
f 184/2/4 185/2/4 188/2/4
f 188/2/4 185/2/4 189/2/4
f 186/2/4 187/2/4 190/2/4
f 190/2/4 187/2/4 191/2/4
f 192/2/4 193/2/4 196/2/4
f 196/2/4 193/2/4 197/2/4
f 194/2/4 195/2/4 198/2/4
f 198/2/4 195/2/4 199/2/4
f 200/2/4 201/2/4 204/2/4
f 204/2/4 201/2/4 205/2/4
f 202/2/4 203/2/4 207/2/4
f 207/2/4 203/2/4 208/2/4
f 206/2/4 207/2/4 210/2/4
f 208/2/4 209/2/4 210/2/4
f 207/2/4 208/2/4 210/2/4
f 210/2/4 209/2/4 211/2/4
f 212/1/4 213/1/4 214/1/4
f 212/1/4 214/1/4 218/1/4
f 214/2/4 215/2/4 218/2/4
f 218/2/4 215/2/4 219/2/4
f 216/2/4 217/2/4 220/2/4
f 220/2/4 217/2/4 221/2/4
f 212/1/4 218/1/4 222/1/4
f 212/1/4 222/1/4 224/1/4
f 222/2/4 223/2/4 225/2/4
f 224/1/4 222/1/4 225/1/4
f 225/2/4 223/2/4 226/2/4
f 229/1/5 228/1/5 227/1/5
f 230/1/5 228/1/5 229/1/5
f 233/2/5 232/2/5 231/2/5
f 234/2/5 232/2/5 233/2/5
f 237/2/5 236/2/5 235/2/5
f 238/2/5 236/2/5 237/2/5
f 241/2/5 240/2/5 239/2/5
f 242/2/5 240/2/5 241/2/5
f 245/2/5 244/2/5 243/2/5
f 246/2/5 244/2/5 245/2/5
f 249/2/5 248/2/5 247/2/5
f 250/2/5 248/2/5 249/2/5
f 253/2/5 252/2/5 251/2/5
f 254/2/5 252/2/5 253/2/5
f 257/1/6 258/1/6 259/1/6
f 259/1/6 258/1/6 260/1/6
f 255/1/6 256/1/6 263/1/6
f 263/1/6 256/1/6 264/1/6
f 261/1/6 262/1/6 265/1/6
f 265/1/6 262/1/6 266/1/6
f 267/2/6 268/2/6 269/2/6
f 269/2/6 268/2/6 270/2/6
f 271/2/6 272/2/6 273/2/6
f 273/2/6 272/2/6 274/2/6
f 275/2/6 276/2/6 277/2/6
f 277/2/6 276/2/6 278/2/6
f 279/2/6 280/2/6 281/2/6
f 281/2/6 280/2/6 282/2/6
f 283/2/6 284/2/6 285/2/6
f 285/2/6 284/2/6 286/2/6
f 287/2/6 288/2/6 289/2/6
f 289/2/6 288/2/6 290/2/6
f 290/2/6 288/2/6 291/2/6
f 291/2/6 288/2/6 292/2/6
f 290/2/6 291/2/6 293/2/6
f 293/2/6 291/2/6 294/2/6
f 295/2/6 296/2/6 297/2/6
f 297/2/6 296/2/6 298/2/6
f 299/2/6 300/2/6 301/2/6
f 301/2/6 300/2/6 302/2/6
f 303/2/6 304/2/6 305/2/6
f 305/2/6 304/2/6 306/2/6
f 307/2/6 308/2/6 310/2/6
f 310/2/6 308/2/6 311/2/6
f 292/2/6 288/2/6 312/2/6
f 310/2/6 311/2/6 313/2/6
f 311/2/6 312/2/6 313/2/6
f 309/2/6 310/2/6 313/2/6
f 313/2/6 312/2/6 314/2/6
f 314/2/6 312/2/6 315/2/6
f 312/2/6 288/2/6 316/2/6
f 315/2/6 312/2/6 316/2/6
f 314/2/6 315/2/6 317/2/6
f 317/2/6 315/2/6 318/2/6
f 316/2/6 288/2/6 319/2/6
f 319/2/6 288/2/6 320/2/6
f 321/2/6 322/2/6 323/2/6
f 323/2/6 322/2/6 324/2/6
f 325/2/6 326/2/6 327/2/6
f 327/2/6 326/2/6 328/2/6
f 329/2/6 330/2/6 331/2/6
f 331/2/6 330/2/6 332/2/6
f 333/2/6 334/2/6 335/2/6
f 335/2/6 334/2/6 336/2/6
